<?xml version="1.0" encoding="UTF-8"?>
<svg id="Capa_1" xmlns="http://www.w3.org/2000/svg" version="1.1" viewBox="0 0 400 404">
  <!-- Generator: Adobe Illustrator 29.8.1, SVG Export Plug-In . SVG Version: 2.1.1 Build 2)  -->
  <path d="M143.79,14.79c115.59-6.45,184.82,121.56,121.02,218.02-1.56,2.37-7.25,7.92-6.71,9.98l122.9,123.19c7.26,13-4.62,24.89-17.51,17.51l-123.2-122.89c-2.07-.54-7.62,5.14-9.98,6.71C123.79,337.77-11.08,247.03,15.68,122.68,28.66,62.39,82.53,18.21,143.79,14.79ZM148.8,39.78C58.61,41.75,6.12,144.01,57.59,218.41c45.61,65.93,143.69,64.82,188.22-1.6,50.95-75.99-5.88-179.02-97.01-177.02Z"/>
</svg>